PathFileType	4	(X/Y/Z)	/Users/niels/Desktop/University/Third Semester/Perception and Action/Exam/Gymnastics Motion Tracking/Code for Gym Tracking/Analyzed Data/Webcam_Backflip/id13_1_baseline_Sports2D/id13_1_baseline_Sports2D_px_person00.trc
DataRate	CameraRate	NumFrames	NumMarkers	Units	OrigDataRate	OrigDataStartFrame	OrigNumFrames
29.702970297029704	29.702970297029704	9	22	m	29.702970297029704	25	101
Frame#	Time	Hip			RHip			RKnee			RAnkle			RBigToe			RSmallToe			RHeel			LHip			LKnee			LAnkle			LBigToe			LSmallToe			LHeel			Neck			Head			Nose			RShoulder			RElbow			RWrist			LShoulder			LElbow			LWrist		
		X1	Y1	Z1	X2	Y2	Z2	X3	Y3	Z3	X4	Y4	Z4	X5	Y5	Z5	X6	Y6	Z6	X7	Y7	Z7	X8	Y8	Z8	X9	Y9	Z9	X10	Y10	Z10	X11	Y11	Z11	X12	Y12	Z12	X13	Y13	Z13	X14	Y14	Z14	X15	Y15	Z15	X16	Y16	Z16	X17	Y17	Z17	X18	Y18	Z18	X19	Y19	Z19	X20	Y20	Z20	X21	Y21	Z21	X22	Y22	Z22
25	0.8416666666666666	0.9732201082570342	-0.6276455821825961	0.0	0.9281247832245619	-0.6336101519500731	0.0	0.9301404065750929	-0.8496177764503814	0.0	0.9266895204942348	-1.0405475801889044	0.0	0.933526787763952	-1.0836352057234933	0.0	0.9022924362065142	-1.0786300250069023	0.0	0.9275038981638036	-1.0527468716938642	0.0	1.0189089309095627	-0.629745460917852	0.0	1.03098983729823	-0.8477113004986293	0.0	1.040626163891342	-1.036898604018758	0.0	1.02901204803653	-1.0843298154215617	0.0	1.0619835308948007	-1.0763483781186778	0.0	1.0374271539594504	-1.0530716955737554	0.0	0.9638606301631	-0.35421185622426327	0.0	0.9601251070457626	-0.22589906124523618	0.0	0.9640842001829281	-0.3030960440442593	0.0	0.881269812141862	-0.3740558001912434	0.0	0.7935515930715079	-0.27450543430843194	0.0	0.8256828909216134	-0.149431037157904	0.0	1.046466369282106	-0.3682491600556155	0.0	1.127529459960513	-0.26339917265624996	0.0	1.096579332022411	-0.13577382609024544	0.0
26	0.8753333333333333	0.9729360029447711	-0.628449045019822	0.0	0.9273604857364324	-0.6354020937881579	0.0	0.9299565957082834	-0.8499229923600252	0.0	0.9264324227584727	-1.0404672784819664	0.0	0.9332936353385467	-1.0832842939361558	0.0	0.9027145670110575	-1.0788495506866569	0.0	0.9277758557873977	-1.0524204940914546	0.0	1.0188702200030697	-0.6316829352442359	0.0	1.031043654353359	-0.8483280251565746	0.0	1.0407659909491127	-1.036366338294583	0.0	1.0294200940190492	-1.0837610093147003	0.0	1.0623401121543088	-1.075837666807247	0.0	1.0370622870376507	-1.0525738576704597	0.0	0.9639373600662675	-0.35463150688284123	0.0	0.9600567654732045	-0.22672501284759042	0.0	0.9637867281411204	-0.30286109496157493	0.0	0.8832719533592505	-0.37377955328331885	0.0	0.8042962888616572	-0.2647573556685024	0.0	0.8536680984695583	-0.1450781722635388	0.0	1.0450879136975115	-0.3681736031217496	0.0	1.1168419816195154	-0.2550866758895339	0.0	1.0707462048790561	-0.13083093569261647	0.0
27	0.9089999999999999	0.9728303262678125	-0.6294103558554355	0.0	0.9266879659101851	-0.6374264668277382	0.0	0.929673493922702	-0.850313577670778	0.0	0.9262377235436802	-1.0401032115708906	0.0	0.9328594284107585	-1.0829187083953107	0.0	0.9028388655831109	-1.0788088385323802	0.0	0.9282654902436919	-1.0519657495262518	0.0	1.0187002575254203	-0.6338602356884732	0.0	1.0310114540445758	-0.8490778834540905	0.0	1.0409348799548825	-1.0358385508433696	0.0	1.0296016634981435	-1.083175544086226	0.0	1.0623244341211933	-1.0753561826799733	0.0	1.0367096915089224	-1.052056127971242	0.0	0.9641296531111192	-0.35483351622259746	0.0	0.9603160994208398	-0.22696428087896062	0.0	0.9634925318375392	-0.3024481535935592	0.0	0.8849197112125906	-0.37342775047220017	0.0	0.8140666273267104	-0.25705021880759477	0.0	0.8773066776577491	-0.14392833409046502	0.0	1.043884904974564	-0.3680437061348378	0.0	1.1076628657184586	-0.24880307734442955	0.0	1.0492852762906648	-0.12892810391780377	0.0
28	0.9426666666666665	0.9728976825796853	-0.6302925915100864	0.0	0.9262429264890918	-0.6391358909519912	0.0	0.9293653583052122	-0.8505769180298719	0.0	0.9261194601947724	-1.03954524225431	0.0	0.9323490233520063	-1.0824750869803537	0.0	0.9026499866549635	-1.0785269838081444	0.0	0.9287422274448567	-1.0514470977257517	0.0	1.0184483611707607	-0.6356791602787636	0.0	1.0309663553573511	-0.8497499721506168	0.0	1.0411061376500035	-1.035414704749511	0.0	1.029507247423596	-1.0824894076375602	0.0	1.0619428452547728	-1.074860038119255	0.0	1.0365051277743533	-1.051534946198842	0.0	0.9643599008821594	-0.3548564313381931	0.0	0.9608634219146948	-0.22661787330680064	0.0	0.9632182822599457	-0.3019008215738472	0.0	0.8861598158440187	-0.3730203111408669	0.0	0.8220609010245603	-0.25141375484484535	0.0	0.8952565037782495	-0.14469027229650364	0.0	1.0429469648115641	-0.36786402695024867	0.0	1.1008053693025635	-0.24447387864363326	0.0	1.0331371744683957	-0.12912541770345604	0.0
29	0.9763333333333333	0.9730738562132617	-0.630915662378287	0.0	0.9260488495279368	-0.6402088082062045	0.0	0.9291268154773218	-0.8506548925100028	0.0	0.9260432326027439	-1.039012096099804	0.0	0.9319288873545776	-1.0820071887445006	0.0	0.902253658555589	-1.0781566970292134	0.0	0.9290107237545279	-1.0509786943681583	0.0	1.018224763745275	-0.6367930414616951	0.0	1.0309763022887637	-0.8502116592649009	0.0	1.0412320131284136	-1.0351810734081557	0.0	1.0291804620687164	-1.0817213512800103	0.0	1.0613457408838303	-1.074391050728623	0.0	1.0365146538163847	-1.0510551774414083	0.0	0.9645917801429003	-0.35480608833872473	0.0	0.961511757276224	-0.2259519803239432	0.0	0.9630206020413438	-0.30130809009485776	0.0	0.8869881928963128	-0.372623043494357	0.0	0.8276154523920837	-0.2478109287424601	0.0	0.9069004884105745	-0.14597937570199096	0.0	1.0423779484283757	-0.3677083626740239	0.0	1.0966324539739363	-0.2418594142187956	0.0	1.022702303070816	-0.13035733036139246	0.0
30	1.01	0.9732884574316291	-0.6312199166214936	0.0	0.9260506746018548	-0.6406791872664259	0.0	0.9290173272995328	-0.8506528638690771	0.0	0.9259362968085862	-1.0387218772942899	0.0	0.9316932865491917	-1.0816823042412917	0.0	0.9018070693619169	-1.0778869656844652	0.0	0.9290028427358561	-1.0507092111321925	0.0	1.0181070210622658	-0.637191439348397	0.0	1.031060742987921	-0.850496891526484	0.0	1.0412561015590864	-1.0351572606730781	0.0	1.028725995110993	-1.0810062152625068	0.0	1.0607691666610142	-1.0740568885029356	0.0	1.036689077456678	-1.0507103708635517	0.0	0.9647965500449178	-0.3547814379758197	0.0	0.9620249466474551	-0.22533964766800935	0.0	0.9629566160529625	-0.3008190828199425	0.0	0.8874611652645289	-0.37231844618967674	0.0	0.8303167905520579	-0.24612196589759264	0.0	0.9122676936029184	-0.14668297233573194	0.0	1.042258696237151	-0.3676512523745625	0.0	1.0951267474925384	-0.24067532188977994	0.0	1.0179175432526812	-0.13167189179353708	0.0
31	1.0436666666666665	0.9734962329284884	-0.6312663933983865	0.0	0.9261887429410633	-0.640789845372193	0.0	0.9290454444044131	-0.8507122556784146	0.0	0.92574228409949	-1.0387453804020497	0.0	0.9316481302847316	-1.0816207591561446	0.0	0.9014399220659944	-1.077792796093886	0.0	0.9287420465171812	-1.0506970387273484	0.0	1.0181056232159371	-0.6371082224165434	0.0	1.0312050671015838	-0.8507333488965333	0.0	1.041141272190561	-1.035288213348827	0.0	1.0282316841717545	-1.080490231086167	0.0	1.0604013158153607	-1.0739061770120055	0.0	1.0369125553570084	-1.050582592555366	0.0	0.964914493559751	-0.3548214834228488	0.0	0.9622555957301822	-0.22508139165647234	0.0	0.9630556942808548	-0.3005741750980274	0.0	0.887643494314805	-0.37218343276577176	0.0	0.8300642676412947	-0.24617514533175033	0.0	0.911752068481604	-0.1462160189194172	0.0	1.0425828740960779	-0.3677335231935437	0.0	1.096056361357571	-0.24069629171155268	0.0	1.0184135271998043	-0.13239830840263284	0.0
32	1.0773333333333333	0.9736770032731532	-0.6311473443598106	0.0	0.9264342615828653	-0.6406850747260374	0.0	0.9291890654476577	-0.8508676110477892	0.0	0.9254755565602033	-1.0389909259481873	0.0	0.9317538866954513	-1.081770175961118	0.0	0.9012349995871728	-1.0778187890788666	0.0	0.9282869584498997	-1.0508647063354752	0.0	1.0181917146898352	-0.6367850791835622	0.0	1.0313847930046827	-0.850979056068744	0.0	1.0409072120551315	-1.0355084567011879	0.0	1.0277630637871151	-1.0802429428509153	0.0	1.0603054765239008	-1.0738968218567426	0.0	1.0371068475417144	-1.050679159295134	0.0	0.9649149627593312	-0.3548851371726999	0.0	0.9622161009295894	-0.22525444357186383	0.0	0.9633322116692846	-0.30060976321963534	0.0	0.8875470541489276	-0.37222984286568406	0.0	0.8270598152934621	-0.24782883752112445	0.0	0.9058541003366015	-0.14461543695535312	0.0	1.0432304951827125	-0.3679486194207304	0.0	1.0991008667801687	-0.2418114317578661	0.0	1.0237055933986834	-0.1322554066085451	0.0
33	1.111	0.973818301157076	-0.6309085083609216	0.0	0.9267806354359261	-0.6402602131191983	0.0	0.9294058127522561	-0.8509920231957424	0.0	0.9252384185679877	-1.0392711545739737	0.0	0.931950660403665	-1.0819590369128238	0.0	0.9012388154477075	-1.0778382388116732	0.0	0.9277278702464008	-1.0511008079720614	0.0	1.0183215057574821	-0.6362597432623667	0.0	1.0315651043619867	-0.8511345143583082	0.0	1.04064385956457	-1.0357873248171503	0.0	1.0274096503161199	-1.0802646366348525	0.0	1.0604471788175287	-1.0739925463179096	0.0	1.0372798835381574	-1.0509319478048322	0.0	0.9648526396446577	-0.3548473618249659	0.0	0.9620533515661608	-0.22565255195342887	0.0	0.9637833407993049	-0.30086410179530215	0.0	0.8871071385659924	-0.37237072075975297	0.0	0.8217232056607063	-0.2509932074754663	0.0	0.8950367087954955	-0.14248424921353678	0.0	1.0440318348150364	-0.36822946214770463	0.0	1.1039467229480435	-0.24401957464297855	0.0	1.0333733319490208	-0.13142942205746688	0.0
